<?xml version="1.0" encoding="UTF-8" ?>
<!DOCTYPE svg PUBLIC "-//W3C//DTD SVG 1.1//EN" "http://www.w3.org/Graphics/SVG/1.1/DTD/svg11.dtd">
<svg width="866pt" height="166pt" viewBox="0 0 866 166" version="1.1" xmlns="http://www.w3.org/2000/svg">
<g id="#fdfdfdfd">
<path fill="#fdfdfd" opacity="1.00" d=" M 115.28 12.76 C 118.77 8.40 125.06 7.11 130.16 9.18 C 128.14 10.00 126.03 10.48 123.90 10.86 C 121.07 11.68 118.23 12.51 115.28 12.76 Z" />
<path fill="#fdfdfd" opacity="1.00" d=" M 89.46 15.47 C 88.60 11.31 93.65 9.64 96.91 9.47 C 99.56 9.49 104.05 8.22 104.73 11.92 C 104.30 14.41 101.41 15.14 99.53 16.30 C 96.05 17.77 93.22 20.30 90.80 23.15 C 89.20 22.70 87.99 21.83 88.73 19.98 C 91.30 15.71 97.16 15.25 100.02 11.46 C 96.03 11.19 92.78 13.70 89.46 15.47 Z" />
<path fill="#fdfdfd" opacity="1.00" d=" M 104.10 16.08 C 106.61 13.25 109.10 9.08 113.46 9.55 C 111.66 14.77 106.23 16.96 102.49 20.53 C 95.87 26.74 88.92 33.04 85.23 41.54 C 84.48 42.32 83.73 43.10 82.99 43.89 C 86.39 39.62 85.99 33.59 89.45 29.35 C 93.25 23.78 100.11 21.45 104.10 16.08 Z" />
<path fill="#fdfdfd" opacity="1.00" d=" M 118.66 16.22 C 123.08 15.09 127.68 13.74 132.27 14.63 C 134.45 15.01 135.78 16.78 136.83 18.57 C 133.19 19.33 129.68 17.74 126.07 17.58 C 123.54 17.46 121.02 17.16 118.66 16.22 Z" />
<path fill="#fdfdfd" opacity="1.00" d=" M 515.34 17.96 C 513.12 15.23 518.12 16.18 519.57 16.58 C 517.84 20.77 519.35 25.50 518.85 29.91 C 518.27 33.99 520.33 38.39 518.46 42.22 L 519.53 42.77 C 518.09 45.51 520.01 48.91 518.82 51.87 C 518.77 53.22 518.88 54.56 519.17 55.88 C 519.19 57.22 519.09 58.56 518.87 59.88 C 518.24 69.29 519.74 78.70 518.79 88.07 C 519.59 91.69 518.75 95.44 519.16 99.12 C 518.16 103.42 519.43 107.77 519.15 112.11 C 518.46 120.38 518.77 128.77 519.18 137.07 C 518.07 142.04 519.68 147.09 519.12 152.10 C 518.79 153.69 518.80 155.32 518.84 156.93 C 517.51 156.88 516.18 156.81 514.86 156.72 C 514.81 150.50 515.93 144.11 514.69 138.00 C 515.57 136.07 515.11 133.92 515.13 131.88 C 514.09 127.96 515.92 123.94 514.86 120.02 C 514.81 119.27 514.70 117.78 514.64 117.03 C 515.69 114.80 515.06 112.25 515.13 109.88 C 514.76 107.61 514.43 105.21 515.27 103.00 C 514.08 99.73 515.44 96.26 515.19 92.89 C 514.90 91.58 514.78 90.25 514.83 88.90 C 515.63 83.30 514.99 77.61 515.19 71.97 C 515.01 69.33 515.69 66.51 514.67 64.00 C 515.64 60.16 515.32 55.93 514.82 52.01 C 514.70 49.04 515.65 45.86 514.66 43.00 C 515.50 41.43 515.39 39.59 514.70 37.99 C 515.59 33.76 515.01 29.23 515.14 24.89 C 514.79 22.60 514.36 20.15 515.34 17.96 Z" />
<path fill="#fdfdfd" opacity="1.00" d=" M 106.66 20.41 C 108.84 17.70 112.32 15.87 115.86 16.58 C 114.20 20.36 109.57 21.06 107.50 24.46 C 103.58 30.60 105.19 38.59 101.19 44.74 C 100.84 44.73 100.15 44.70 99.80 44.68 C 99.82 43.73 99.86 41.82 99.88 40.87 C 100.23 33.63 101.94 26.11 106.66 20.41 Z" />
<path fill="#fdfdfd" opacity="1.00" d=" M 109.91 26.04 C 111.43 21.62 116.70 20.11 120.87 19.43 C 127.82 19.01 136.82 22.16 138.55 29.66 C 133.08 29.00 129.73 23.52 124.11 23.14 C 119.09 21.62 114.27 23.72 109.91 26.04 Z" />
<path fill="#fdfdfd" opacity="1.00" d=" M 110.03 29.93 C 112.27 27.89 115.23 26.46 118.32 26.66 C 118.55 29.20 115.68 29.97 114.16 31.35 C 111.42 32.95 109.77 35.83 108.99 38.83 C 107.64 44.02 106.16 49.19 105.30 54.49 C 104.53 57.52 103.71 61.04 100.90 62.84 C 100.48 59.87 100.03 56.81 100.64 53.84 C 101.76 50.70 104.52 48.33 104.93 44.90 C 105.94 39.75 106.38 34.05 110.03 29.93 Z" />
<path fill="#fdfdfd" opacity="1.00" d=" M 123.68 27.63 C 129.25 27.28 134.82 30.59 137.93 35.16 C 140.31 38.80 142.91 42.28 145.48 45.79 C 145.49 47.27 145.48 48.76 145.46 50.25 C 144.51 51.23 144.09 53.38 142.33 52.78 C 140.24 49.63 139.70 45.83 138.40 42.35 C 135.65 36.45 130.92 31.12 124.45 29.38 C 124.25 28.94 123.87 28.06 123.68 27.63 Z" />
<path fill="#fdfdfd" opacity="1.00" d=" M 87.63 42.57 C 90.09 37.79 92.90 32.92 97.55 29.94 C 97.92 31.79 96.60 33.18 95.60 34.52 C 90.75 39.96 87.56 46.57 83.92 52.81 C 81.95 55.83 79.30 59.60 75.37 59.72 C 79.13 53.76 84.42 48.88 87.63 42.57 Z" />
<path fill="#fdfdfd" opacity="1.00" d=" M 110.07 40.84 C 111.62 36.42 116.53 34.03 120.95 33.70 C 126.87 33.28 131.83 37.62 134.66 42.42 C 137.66 46.99 137.92 52.65 140.35 57.48 C 141.74 60.28 143.10 63.61 141.66 66.68 C 138.63 66.41 138.27 62.46 137.66 60.08 C 137.19 53.89 134.43 48.14 130.90 43.14 C 127.98 39.09 122.94 36.38 117.88 37.41 C 114.90 37.69 113.23 41.20 110.07 40.84 Z" />
<path fill="#fdfdfd" opacity="1.00" d=" M 93.74 43.56 C 94.47 41.50 94.83 38.52 97.39 37.97 C 98.36 44.99 94.86 51.41 90.94 56.92 C 84.50 66.00 81.24 77.24 72.97 85.01 C 68.35 90.11 62.93 94.88 56.13 96.71 C 50.77 98.37 45.05 97.81 39.56 97.19 C 39.55 96.29 39.55 95.39 39.55 94.49 C 45.04 95.09 50.96 96.74 56.21 94.18 C 66.71 89.29 74.66 80.24 80.55 70.47 C 85.76 61.97 91.65 53.47 93.74 43.56 Z" />
<path fill="#fdfdfd" opacity="1.00" d=" M 116.79 41.35 C 120.53 39.73 124.70 42.00 127.00 44.99 C 132.09 51.13 132.89 59.41 136.74 66.20 C 139.19 70.17 144.65 73.45 142.82 78.84 C 140.63 79.43 139.71 77.20 138.78 75.79 C 136.07 70.89 132.59 66.34 131.03 60.89 C 129.75 56.45 129.50 51.40 126.25 47.81 C 124.09 45.17 120.28 43.31 116.98 44.95 C 113.77 46.31 112.01 49.67 111.29 52.93 C 109.84 58.57 111.08 64.38 111.50 70.06 C 112.33 80.18 115.53 89.93 119.64 99.16 C 120.98 102.68 123.03 106.23 122.51 110.13 C 121.83 110.52 120.47 111.29 119.80 111.68 C 118.91 110.74 117.99 109.77 117.68 108.48 C 114.10 97.13 110.05 85.87 107.84 74.15 C 106.94 67.46 106.93 60.66 107.60 53.95 C 108.18 48.55 111.37 43.04 116.79 41.35 Z" />
<path fill="#fdfdfd" opacity="1.00" d=" M 333.57 46.77 C 338.76 45.70 344.40 46.20 349.08 48.81 C 355.67 52.24 360.11 59.60 359.70 67.07 C 359.81 74.59 355.03 81.80 348.24 84.96 C 337.53 90.44 322.42 85.40 318.58 73.61 C 314.08 62.45 321.93 49.02 333.57 46.77 M 335.39 56.58 C 330.74 58.10 327.93 63.21 328.59 67.97 C 329.09 73.09 333.69 77.67 338.98 77.24 C 345.55 77.36 350.09 69.98 348.28 63.98 C 347.10 58.47 340.80 54.60 335.39 56.58 Z" />
<path fill="#fdfdfd" opacity="1.00" d=" M 458.41 46.68 C 465.49 45.52 473.12 47.11 478.78 51.65 C 476.88 54.21 475.03 56.81 473.21 59.43 C 469.44 56.80 464.65 54.69 460.00 55.86 C 457.91 56.41 457.60 59.41 459.68 60.19 C 465.56 62.67 472.88 62.54 477.51 67.50 C 482.49 73.41 479.04 83.28 471.90 85.63 C 463.02 88.56 452.43 86.71 445.37 80.44 C 447.41 78.04 449.38 75.58 451.54 73.28 C 455.88 76.47 461.47 78.85 466.91 77.51 C 468.75 77.04 469.60 74.34 467.67 73.35 C 462.23 70.41 455.14 70.99 450.39 66.58 C 447.03 63.76 446.68 58.80 447.91 54.87 C 449.40 50.33 453.89 47.51 458.41 46.68 Z" />
<path fill="#fdfdfd" opacity="1.00" d=" M 195.00 47.14 C 198.74 47.15 202.48 47.18 206.22 47.11 C 209.34 52.09 212.42 57.10 215.50 62.11 C 218.74 57.21 221.69 52.13 224.80 47.15 C 228.67 47.15 232.54 47.15 236.41 47.15 C 236.43 60.21 236.39 73.27 236.43 86.34 C 232.77 86.35 229.11 86.35 225.45 86.34 C 225.47 78.93 225.48 71.52 225.46 64.11 C 222.06 69.09 218.86 74.19 215.59 79.25 C 211.92 74.37 208.89 69.05 205.43 64.03 C 205.45 71.47 205.43 78.90 205.46 86.34 C 201.97 86.35 198.49 86.34 195.00 86.34 C 195.00 73.28 195.00 60.21 195.00 47.14 Z" />
<path fill="#fdfdfd" opacity="1.00" d=" M 244.09 47.17 C 247.77 47.14 251.44 47.14 255.12 47.18 C 255.12 60.23 255.11 73.28 255.12 86.33 C 251.44 86.35 247.75 86.35 244.07 86.33 C 244.15 73.28 244.11 60.22 244.09 47.17 Z" />
<path fill="#fdfdfd" opacity="1.00" d=" M 268.09 48.32 C 276.09 44.56 286.28 46.16 293.10 51.71 C 291.20 54.21 289.39 56.77 287.65 59.39 C 283.95 56.97 279.54 54.94 275.02 55.66 C 272.78 55.69 271.73 59.02 273.86 60.05 C 280.03 62.92 288.28 62.41 292.61 68.51 C 296.43 74.76 292.81 83.69 285.84 85.80 C 277.02 88.49 266.93 86.52 259.77 80.68 C 261.62 78.05 263.79 75.67 265.84 73.21 C 270.13 76.42 275.62 78.76 281.04 77.58 C 283.18 77.27 283.91 74.14 281.83 73.16 C 276.07 70.46 268.71 70.81 264.04 65.94 C 259.41 60.55 261.70 51.26 268.09 48.32 Z" />
<path fill="#fdfdfd" opacity="1.00" d=" M 300.11 47.17 C 303.77 47.14 307.42 47.13 311.07 47.20 C 311.07 60.24 311.06 73.28 311.08 86.32 C 307.41 86.35 303.75 86.35 300.09 86.33 C 300.17 73.28 300.13 60.22 300.11 47.17 Z" />
<path fill="#fdfdfd" opacity="1.00" d=" M 365.93 47.20 C 369.30 47.17 372.67 47.03 376.05 47.21 C 381.67 53.78 386.72 60.88 392.21 67.59 C 392.21 60.78 392.21 53.97 392.19 47.16 C 395.76 47.14 399.33 47.14 402.91 47.17 C 402.89 60.22 402.85 73.28 402.93 86.33 C 399.72 86.35 396.52 86.35 393.32 86.32 C 387.87 79.14 382.24 72.08 376.71 64.95 C 376.70 72.06 376.61 79.17 376.76 86.28 C 373.15 86.38 369.54 86.35 365.93 86.32 C 365.93 73.28 365.94 60.24 365.93 47.20 Z" />
<path fill="#fdfdfd" opacity="1.00" d=" M 410.52 47.15 C 420.99 47.16 431.46 47.13 441.93 47.17 C 441.90 50.20 441.88 53.24 442.01 56.28 C 435.09 56.33 428.18 56.26 421.26 56.32 C 421.27 58.30 421.28 60.29 421.28 62.27 C 427.52 62.29 433.75 62.26 439.99 62.29 C 440.09 65.12 440.08 67.97 440.07 70.81 C 433.81 70.91 427.55 70.83 421.30 70.86 C 421.28 72.88 421.28 74.90 421.28 76.93 C 428.26 77.23 435.25 77.04 442.24 77.06 C 442.26 80.15 442.26 83.25 442.27 86.34 C 431.68 86.34 421.10 86.35 410.51 86.34 C 410.55 73.27 410.52 60.21 410.52 47.15 Z" />
<path fill="#fdfdfd" opacity="1.00" d=" M 82.77 57.85 C 85.32 54.63 86.19 49.66 90.46 48.17 C 89.42 53.46 85.55 57.44 83.25 62.18 C 75.46 75.75 63.85 88.84 48.02 92.53 C 45.79 92.80 46.37 90.19 46.71 88.92 C 55.15 87.75 61.92 82.22 68.81 77.68 C 72.03 75.23 75.88 72.21 75.93 67.79 C 71.99 69.15 69.50 73.53 65.12 73.60 C 66.84 70.55 70.01 68.87 72.83 66.99 C 76.73 64.68 79.94 61.36 82.77 57.85 Z" />
<path fill="#fdfdfd" opacity="1.00" d=" M 88.78 77.76 C 92.84 68.11 92.70 56.58 99.61 48.26 C 97.55 53.32 97.96 58.92 96.47 64.12 C 94.77 70.57 93.10 77.12 90.00 83.07 C 87.67 87.47 84.40 91.67 79.78 93.79 C 73.14 97.02 66.55 101.35 58.94 101.48 C 61.13 97.09 66.81 97.19 69.97 93.90 C 72.31 91.50 74.31 88.79 76.85 86.59 C 77.22 86.60 77.97 86.64 78.34 86.66 C 77.85 88.43 77.40 90.21 77.02 92.01 C 83.04 89.51 86.30 83.41 88.78 77.76 Z" />
<path fill="#fdfdfd" opacity="1.00" d=" M 115.95 51.73 C 117.33 49.39 120.45 48.88 122.46 50.76 C 126.63 54.61 128.10 60.33 130.66 65.22 C 133.41 70.33 136.23 75.45 139.87 79.99 C 142.05 82.46 142.62 85.86 141.96 89.02 C 141.47 88.78 140.48 88.30 139.99 88.05 C 136.93 80.28 131.82 73.59 127.60 66.45 C 124.90 61.77 124.12 55.95 120.05 52.13 C 116.81 53.83 117.35 57.90 117.43 60.96 C 118.32 71.24 121.56 81.18 125.69 90.58 C 127.13 94.32 129.91 97.94 129.27 102.14 C 128.43 103.04 127.50 103.18 126.47 102.56 C 120.14 90.92 116.34 78.08 113.84 65.10 C 113.41 60.59 113.78 55.77 115.95 51.73 Z" />
<path fill="#fdfdfd" opacity="1.00" d=" M 555.00 51.00 C 560.22 51.42 565.82 49.93 570.75 52.18 C 575.69 54.56 576.42 61.99 572.43 65.56 C 569.17 68.39 564.61 68.08 560.60 68.01 C 560.60 70.67 560.60 73.33 560.61 75.99 C 558.73 76.00 556.86 76.00 555.00 76.00 C 555.00 67.67 555.00 59.33 555.00 51.00 M 560.60 56.00 C 560.60 58.33 560.60 60.67 560.60 63.00 C 563.53 62.86 568.40 63.99 569.27 60.09 C 569.83 55.23 563.74 55.90 560.60 56.00 Z" />
<path fill="#fdfdfd" opacity="1.00" d=" M 575.80 76.02 C 579.53 67.72 582.97 59.29 586.69 50.99 C 588.39 50.99 590.11 51.00 591.83 51.01 C 595.42 59.35 598.89 67.75 602.68 76.00 C 600.68 76.00 598.70 76.00 596.72 76.00 C 596.00 74.02 595.27 72.05 594.56 70.07 C 590.98 69.96 587.39 70.01 583.81 70.00 C 583.06 71.98 582.29 73.96 581.55 75.94 C 579.63 75.99 577.71 76.01 575.80 76.02 M 585.79 64.98 C 588.03 65.00 590.28 65.00 592.53 65.00 C 591.38 62.29 590.23 59.57 589.17 56.82 C 588.03 59.53 586.92 62.26 585.79 64.98 Z" />
<path fill="#fdfdfd" opacity="1.00" d=" M 607.00 51.00 C 612.60 51.44 618.56 49.93 623.89 52.11 C 630.12 55.02 629.09 65.09 622.69 67.22 C 624.80 70.13 626.80 73.13 628.96 76.01 C 626.72 76.00 624.48 76.00 622.25 75.99 C 620.45 73.35 618.67 70.68 616.92 68.00 C 615.48 68.00 614.04 68.00 612.60 68.00 C 612.60 70.67 612.60 73.33 612.61 76.00 C 610.73 76.00 608.86 76.00 607.00 76.00 C 607.00 67.67 607.00 59.33 607.00 51.00 M 612.60 56.00 C 612.60 58.33 612.60 60.66 612.60 62.99 C 615.79 62.61 620.31 64.33 622.26 60.86 C 623.12 58.70 621.62 56.98 619.88 55.95 C 617.45 56.02 615.02 56.00 612.60 56.00 Z" />
<path fill="#fdfdfd" opacity="1.00" d=" M 631.88 63.00 C 632.04 53.85 643.14 48.26 651.01 52.16 C 658.37 54.89 660.87 64.73 656.55 71.05 C 657.39 71.75 658.24 72.45 659.09 73.15 C 657.88 74.44 656.68 75.73 655.48 77.03 C 654.59 75.99 653.71 74.94 652.84 73.90 C 651.40 74.54 649.97 75.18 648.51 75.76 C 640.60 77.78 631.17 71.64 631.88 63.00 M 638.31 66.52 C 639.94 70.66 644.76 71.50 648.69 71.01 C 647.27 69.83 645.85 68.66 644.40 67.54 C 645.66 66.27 646.88 64.94 648.08 63.59 C 649.49 64.88 650.93 66.15 652.49 67.29 C 654.07 62.54 651.42 56.41 646.03 55.99 C 640.45 55.04 635.89 61.51 638.31 66.52 Z" />
<path fill="#fdfdfd" opacity="1.00" d=" M 662.60 51.00 C 664.43 51.00 666.28 51.00 668.13 51.00 C 668.28 56.33 667.80 61.70 668.41 67.01 C 669.02 72.29 678.06 72.39 678.79 67.17 C 679.27 61.80 678.87 56.38 679.00 51.00 C 680.86 51.00 682.73 51.00 684.61 51.00 C 684.55 56.04 684.71 61.09 684.54 66.12 C 684.43 69.33 682.99 72.70 680.15 74.40 C 676.05 76.61 670.75 76.69 666.73 74.24 C 663.97 72.49 662.64 69.15 662.61 65.98 C 662.54 60.99 662.62 55.99 662.60 51.00 Z" />
<path fill="#fdfdfd" opacity="1.00" d=" M 690.00 51.00 C 696.33 51.00 702.66 51.00 709.00 51.00 C 708.99 52.67 708.99 54.33 709.00 56.00 C 704.48 56.00 699.97 55.99 695.46 56.01 C 695.46 57.67 695.46 59.33 695.46 60.99 C 699.44 61.01 703.42 61.00 707.40 61.00 C 707.39 62.67 707.39 64.33 707.40 66.00 C 703.42 66.00 699.44 66.00 695.47 66.01 C 695.46 67.67 695.46 69.33 695.46 70.99 C 700.06 71.01 704.66 71.00 709.27 71.00 C 709.26 72.67 709.26 74.33 709.27 76.00 C 702.84 76.00 696.42 76.00 690.00 76.00 C 690.00 67.67 690.00 59.33 690.00 51.00 Z" />
<path fill="#fdfdfd" opacity="1.00" d=" M 725.00 51.00 C 731.15 51.35 738.09 49.64 743.43 53.62 C 749.88 58.11 749.89 68.93 743.36 73.35 C 738.07 77.38 731.13 75.64 725.00 76.00 C 725.00 67.67 725.00 59.33 725.00 51.00 M 730.60 56.00 C 730.60 61.00 730.60 66.00 730.60 71.00 C 733.38 70.88 736.39 71.51 738.94 70.04 C 743.28 67.50 743.71 60.38 739.54 57.48 C 737.01 55.38 733.60 56.10 730.60 56.00 Z" />
<path fill="#fdfdfd" opacity="1.00" d=" M 753.00 51.00 C 759.33 51.00 765.66 51.00 772.00 51.00 C 771.99 52.67 771.99 54.33 772.00 56.00 C 767.49 56.00 762.97 55.99 758.47 56.01 C 758.46 57.67 758.46 59.32 758.46 60.98 C 762.44 61.01 766.42 61.00 770.40 61.00 C 770.39 62.67 770.39 64.33 770.40 66.00 C 766.42 66.00 762.44 66.00 758.47 66.01 C 758.46 67.67 758.46 69.33 758.46 70.99 C 763.06 71.01 767.66 71.00 772.27 71.00 C 772.26 72.67 772.26 74.33 772.27 76.00 C 765.84 76.00 759.42 76.00 753.00 76.00 C 753.00 67.67 753.00 59.33 753.00 51.00 Z" />
<path fill="#fdfdfd" opacity="1.00" d=" M 777.00 51.00 C 778.86 51.00 780.73 51.00 782.61 51.00 C 782.60 57.67 782.60 64.33 782.61 71.00 C 786.78 71.00 790.95 71.00 795.13 71.00 C 795.12 72.67 795.12 74.33 795.13 76.00 C 789.09 76.00 783.04 76.00 777.00 76.00 C 777.00 67.67 777.00 59.33 777.00 51.00 Z" />
<path fill="#fdfdfd" opacity="1.00" d=" M 86.33 69.52 C 87.50 66.66 88.40 63.55 90.76 61.40 C 89.83 69.93 87.13 79.21 80.15 84.78 C 81.76 79.52 84.30 74.62 86.33 69.52 Z" />
<path fill="#fdfdfd" opacity="1.00" d=" M 120.73 63.35 C 121.11 63.31 121.88 63.23 122.27 63.18 C 125.22 70.73 129.30 77.74 133.75 84.49 C 136.12 88.60 138.70 93.54 137.24 98.37 C 135.80 98.66 134.70 98.20 133.95 97.00 C 131.51 93.86 130.71 89.85 128.71 86.46 C 124.42 79.44 122.06 71.42 120.73 63.35 Z" />
<path fill="#fdfdfd" opacity="1.00" d=" M 98.95 64.30 C 99.35 64.34 100.13 64.42 100.52 64.47 C 99.32 74.71 97.40 86.51 88.39 92.98 C 89.13 89.53 91.25 86.65 92.69 83.49 C 95.64 77.40 97.05 70.75 98.95 64.30 Z" />
<path fill="#fdfdfd" opacity="1.00" d=" M 103.24 68.99 C 104.65 73.17 104.16 77.69 105.05 81.98 C 106.74 89.52 107.13 97.52 110.75 104.49 C 112.30 107.54 113.20 110.84 114.27 114.07 C 113.95 114.89 113.62 115.71 113.31 116.54 C 112.13 116.69 110.96 116.83 109.79 116.96 C 108.13 114.24 108.66 110.97 108.03 107.98 C 107.16 102.87 104.28 98.36 103.47 93.23 C 102.31 86.64 101.52 79.93 101.82 73.23 C 101.85 71.70 102.59 70.33 103.24 68.99 Z" />
<path fill="#fdfdfd" opacity="1.00" d=" M 96.38 88.87 C 96.72 86.73 98.20 85.09 100.23 84.41 C 100.07 91.58 100.49 98.79 102.15 105.79 C 103.48 110.12 105.27 114.45 104.85 119.09 C 104.19 119.51 103.53 119.94 102.88 120.37 C 100.04 119.06 99.82 115.71 99.11 113.06 C 97.35 105.14 95.29 97.03 96.38 88.87 Z" />
<path fill="#fdfdfd" opacity="1.00" d=" M 90.86 100.89 C 91.48 97.63 92.04 94.23 94.24 91.59 C 95.20 96.36 93.80 101.20 94.19 106.02 C 94.22 110.78 95.32 115.42 96.70 119.94 C 97.23 121.22 97.04 124.04 94.96 123.48 C 91.35 119.25 92.00 113.21 90.88 108.10 C 90.70 105.70 90.71 103.29 90.86 100.89 Z" />
<path fill="#fdfdfd" opacity="1.00" d=" M 59.10 106.07 C 68.52 102.38 77.76 98.14 86.52 93.08 C 86.42 96.99 82.68 99.15 79.83 101.11 C 73.21 105.00 66.03 107.98 58.65 110.12 C 50.51 111.37 41.63 112.47 33.85 109.12 C 31.73 107.33 35.37 105.86 37.03 106.39 C 44.27 108.09 51.89 107.82 59.10 106.07 Z" />
<path fill="#fdfdfd" opacity="1.00" d=" M 558.64 97.72 C 563.99 93.63 572.25 94.09 577.08 98.82 C 575.87 100.10 574.67 101.41 573.50 102.73 C 570.84 100.55 567.01 98.82 563.74 100.76 C 558.35 103.12 558.37 111.92 563.77 114.26 C 567.10 116.18 571.04 114.47 573.68 112.16 C 574.85 113.33 576.02 114.50 577.22 115.65 C 571.98 121.53 561.66 121.56 556.65 115.40 C 552.26 110.27 553.23 101.76 558.64 97.72 Z" />
<path fill="#fdfdfd" opacity="1.00" d=" M 591.27 95.08 C 597.18 94.20 603.85 97.33 605.91 103.16 C 608.34 109.17 605.04 116.59 598.98 118.85 C 591.84 122.28 581.72 118.29 580.14 110.19 C 578.39 103.04 584.13 95.82 591.27 95.08 M 590.38 100.47 C 585.13 102.28 584.05 110.21 588.56 113.41 C 592.94 117.29 600.82 113.93 600.87 108.02 C 601.47 102.60 595.27 98.32 590.38 100.47 Z" />
<path fill="#fdfdfd" opacity="1.00" d=" M 612.00 95.00 C 613.68 95.00 615.37 94.99 617.06 94.98 C 621.06 100.08 624.97 105.25 628.90 110.40 C 628.83 105.27 628.87 100.13 628.87 95.00 C 630.70 95.00 632.55 95.00 634.40 95.00 C 634.40 103.33 634.40 111.66 634.40 119.98 C 632.86 120.00 631.32 120.02 629.79 120.05 C 625.60 114.77 621.60 109.35 617.43 104.05 C 617.51 109.37 617.45 114.68 617.47 120.00 C 615.64 120.00 613.82 120.00 612.00 120.00 C 612.00 111.67 612.00 103.33 612.00 95.00 Z" />
<path fill="#fdfdfd" opacity="1.00" d=" M 650.27 95.08 C 656.18 94.20 662.85 97.33 664.92 103.16 C 667.34 109.18 664.03 116.61 657.95 118.87 C 650.79 122.28 640.66 118.25 639.13 110.12 C 637.42 102.99 643.16 95.81 650.27 95.08 M 649.32 100.50 C 644.13 102.34 643.07 110.20 647.54 113.39 C 651.89 117.27 659.75 113.98 659.86 108.10 C 660.52 102.63 654.26 98.27 649.32 100.50 Z" />
<path fill="#fdfdfd" opacity="1.00" d=" M 673.67 97.70 C 679.03 93.63 687.24 94.13 692.09 98.80 C 690.87 100.09 689.68 101.40 688.51 102.73 C 685.84 100.55 682.00 98.81 678.72 100.77 C 673.36 103.13 673.37 111.91 678.75 114.24 C 682.08 116.20 686.05 114.47 688.69 112.16 C 689.85 113.33 691.02 114.50 692.21 115.66 C 686.97 121.54 676.65 121.56 671.63 115.38 C 667.25 110.24 668.25 101.71 673.67 97.70 Z" />
<path fill="#fdfdfd" opacity="1.00" d=" M 697.26 95.00 C 699.12 95.00 700.99 95.00 702.87 95.00 C 702.87 103.33 702.87 111.67 702.87 120.00 C 700.99 120.00 699.12 120.00 697.26 120.00 C 697.26 111.67 697.26 103.33 697.26 95.00 Z" />
<path fill="#fdfdfd" opacity="1.00" d=" M 709.00 95.00 C 711.00 95.00 713.00 95.00 715.02 95.00 C 717.20 98.56 719.46 102.07 721.64 105.64 C 723.77 102.06 726.06 98.58 728.21 95.02 C 730.22 95.00 732.24 95.00 734.27 94.99 C 734.27 103.33 734.27 111.66 734.27 120.00 C 732.41 120.00 730.57 120.00 728.73 120.00 C 728.73 114.55 728.73 109.10 728.73 103.65 C 726.32 107.25 723.91 110.83 721.55 114.45 C 719.15 110.94 716.85 107.38 714.49 103.86 C 714.45 109.24 714.48 114.62 714.47 120.00 C 712.63 120.00 710.82 120.00 709.00 120.00 C 709.00 111.67 709.00 103.33 709.00 95.00 Z" />
<path fill="#fdfdfd" opacity="1.00" d=" M 740.26 95.00 C 742.12 95.00 743.99 95.00 745.87 95.00 C 745.87 103.33 745.87 111.67 745.87 120.00 C 743.99 120.00 742.12 120.00 740.26 120.00 C 740.26 111.67 740.26 103.33 740.26 95.00 Z" />
<path fill="#fdfdfd" opacity="1.00" d=" M 752.00 95.00 C 758.33 95.00 764.66 95.00 771.00 95.00 C 770.99 96.67 770.99 98.33 771.00 100.00 C 766.49 100.00 761.98 100.00 757.47 100.01 C 757.46 101.66 757.46 103.32 757.46 104.98 C 761.43 105.01 765.42 105.00 769.40 105.00 C 769.39 106.66 769.39 108.33 769.40 110.00 C 765.42 110.00 761.44 109.99 757.47 110.01 C 757.46 111.66 757.45 113.31 757.44 114.96 C 762.05 115.03 766.66 114.99 771.27 115.00 C 771.26 116.66 771.26 118.33 771.27 120.00 C 764.84 120.00 758.42 120.00 752.00 120.00 C 752.00 111.67 752.00 103.33 752.00 95.00 Z" />
<path fill="#fdfdfd" opacity="1.00" d=" M 776.00 95.00 C 777.68 95.00 779.36 94.99 781.06 94.98 C 785.05 100.08 788.97 105.24 792.90 110.40 C 792.83 105.27 792.87 100.13 792.87 95.00 C 794.70 95.00 796.55 95.00 798.40 95.00 C 798.40 103.33 798.40 111.66 798.40 119.99 C 796.84 120.00 795.30 120.01 793.76 120.03 C 789.60 114.74 785.58 109.35 781.43 104.05 C 781.50 109.37 781.45 114.68 781.47 120.00 C 779.63 120.00 777.82 120.00 776.00 120.00 C 776.00 111.67 776.00 103.33 776.00 95.00 Z" />
<path fill="#fdfdfd" opacity="1.00" d=" M 803.26 95.00 C 810.22 95.00 817.17 95.00 824.13 95.00 C 824.12 96.67 824.12 98.33 824.13 100.00 C 821.57 100.00 819.01 100.00 816.46 100.01 C 816.48 106.67 816.46 113.34 816.47 120.00 C 814.59 120.00 812.73 120.00 810.87 120.00 C 810.86 113.33 810.86 106.67 810.87 100.00 C 808.32 100.00 805.79 100.00 803.26 100.00 C 803.25 98.33 803.25 96.67 803.26 95.00 Z" />
<path fill="#fdfdfd" opacity="1.00" d=" M 838.23 95.08 C 844.14 94.19 850.83 97.31 852.91 103.14 C 855.34 109.15 852.05 116.59 845.98 118.85 C 838.83 122.28 828.72 118.28 827.14 110.18 C 825.39 103.06 831.11 95.84 838.23 95.08 M 837.35 100.48 C 832.12 102.30 831.06 110.23 835.58 113.42 C 839.95 117.28 847.79 113.93 847.87 108.05 C 848.49 102.61 842.27 98.30 837.35 100.48 Z" />
<path fill="#fdfdfd" opacity="1.00" d=" M 34.89 99.81 C 38.89 98.36 42.86 100.61 46.81 101.18 C 49.44 101.43 52.09 101.48 54.73 101.73 C 54.63 102.08 54.43 102.79 54.33 103.15 C 49.11 105.54 43.21 104.38 37.80 103.41 C 36.01 103.18 33.27 102.06 34.89 99.81 Z" />
<path fill="#fdfdfd" opacity="1.00" d=" M 77.36 107.40 C 78.88 103.82 81.49 100.79 84.85 98.84 C 84.40 102.52 81.89 108.41 77.36 107.40 Z" />
<path fill="#fdfdfd" opacity="1.00" d=" M 83.71 106.74 C 84.98 103.90 86.35 101.08 88.17 98.54 C 90.42 101.71 88.04 105.70 87.02 108.96 C 85.81 110.80 88.02 111.99 89.14 113.03 C 88.46 117.52 91.15 121.55 90.82 125.99 C 90.37 126.46 89.47 127.41 89.01 127.88 C 88.02 126.85 86.82 125.91 86.32 124.52 C 84.04 118.90 83.26 112.77 83.71 106.74 Z" />
<path fill="#fdfdfd" opacity="1.00" d=" M 195.00 100.31 C 199.62 100.56 204.51 99.55 208.90 101.37 C 213.81 103.47 214.37 111.07 210.13 114.12 C 206.51 116.92 201.68 116.06 197.43 116.19 C 197.44 119.04 197.45 121.90 197.46 124.75 C 196.84 124.76 195.61 124.77 195.00 124.78 C 195.00 116.62 195.00 108.46 195.00 100.31 M 197.46 102.92 C 197.43 106.49 197.45 110.06 197.42 113.63 C 201.20 113.44 205.71 114.55 208.79 111.73 C 211.45 109.30 210.26 104.47 206.85 103.43 C 203.77 102.72 200.59 102.96 197.46 102.92 Z" />
<path fill="#fdfdfd" opacity="1.00" d=" M 228.53 100.34 C 233.36 100.51 238.34 99.71 243.06 100.97 C 247.03 102.09 249.00 106.93 247.28 110.60 C 246.31 113.09 243.66 114.21 241.29 114.93 C 243.88 118.13 246.31 121.45 248.74 124.77 C 247.58 124.77 246.43 124.77 245.28 124.77 C 242.91 121.56 240.57 118.34 238.10 115.21 C 235.83 115.26 233.56 115.26 231.30 115.27 C 231.32 118.44 231.32 121.61 231.33 124.77 C 230.63 124.77 229.24 124.76 228.55 124.76 C 228.55 116.62 228.59 108.48 228.53 100.34 M 231.36 102.92 C 231.30 106.20 231.32 109.49 231.30 112.77 C 235.11 112.50 239.28 113.62 242.80 111.72 C 246.09 110.05 245.59 104.35 241.95 103.39 C 238.47 102.67 234.89 102.98 231.36 102.92 Z" />
<path fill="#fdfdfd" opacity="1.00" d=" M 271.40 100.62 C 276.98 98.45 284.01 100.96 286.65 106.40 C 289.03 110.84 288.50 116.54 285.42 120.51 C 281.09 126.33 271.29 126.64 266.49 121.29 C 260.52 115.13 263.01 103.24 271.40 100.62 M 271.33 103.50 C 264.12 106.96 264.51 119.09 272.11 121.84 C 278.48 124.97 286.04 118.71 285.22 111.96 C 285.24 105.23 277.35 100.15 271.33 103.50 Z" />
<path fill="#fdfdfd" opacity="1.00" d=" M 322.51 101.11 C 322.99 99.74 324.81 100.53 325.87 100.20 C 322.44 108.44 318.82 116.60 315.40 124.84 C 314.36 124.66 312.73 125.36 312.43 123.89 C 308.99 116.04 305.72 108.11 302.28 100.25 C 303.05 100.27 304.59 100.32 305.37 100.35 C 308.50 107.12 311.09 114.14 314.01 121.01 C 317.19 114.54 319.55 107.69 322.51 101.11 Z" />
<path fill="#fdfdfd" opacity="1.00" d=" M 341.38 100.31 C 342.34 100.32 343.31 100.32 344.28 100.34 C 344.23 108.49 344.27 116.64 344.26 124.79 C 343.54 124.78 342.10 124.76 341.38 124.75 C 341.41 116.60 341.42 108.46 341.38 100.31 Z" />
<path fill="#fdfdfd" opacity="1.00" d=" M 361.81 100.42 C 362.71 100.37 363.61 100.32 364.51 100.28 C 369.57 106.85 374.79 113.29 379.83 119.87 C 379.87 113.32 379.78 106.78 379.87 100.23 C 380.53 100.27 381.85 100.35 382.51 100.38 C 382.45 108.48 382.44 116.58 382.52 124.68 C 381.97 124.71 380.88 124.77 380.34 124.79 C 375.11 118.13 369.82 111.51 364.64 104.81 C 364.61 111.46 364.62 118.11 364.64 124.76 C 363.95 124.76 362.55 124.76 361.86 124.76 C 361.83 116.64 361.91 108.53 361.81 100.42 Z" />
<path fill="#fdfdfd" opacity="1.00" d=" M 405.11 101.47 C 410.16 98.54 416.84 99.75 420.93 103.78 C 420.44 104.29 419.46 105.31 418.97 105.81 C 416.27 103.48 412.61 101.71 408.99 102.79 C 403.15 104.06 400.18 111.32 402.58 116.59 C 404.31 121.35 410.25 124.05 414.91 121.88 C 417.16 121.11 419.20 117.67 421.13 120.91 C 416.08 126.35 406.03 126.72 401.50 120.47 C 396.83 114.69 398.59 105.10 405.11 101.47 Z" />
<path fill="#fdfdfd" opacity="1.00" d=" M 436.41 100.31 C 437.40 100.31 438.40 100.32 439.40 100.32 C 439.36 108.47 439.39 116.63 439.38 124.78 C 438.64 124.77 437.16 124.76 436.42 124.75 C 436.44 116.61 436.45 108.46 436.41 100.31 Z" />
<path fill="#fdfdfd" opacity="1.00" d=" M 454.81 124.75 C 458.61 116.59 462.32 108.38 465.97 100.15 C 466.63 100.15 467.95 100.14 468.61 100.14 C 472.41 108.33 476.01 116.63 479.86 124.80 C 478.82 124.77 477.77 124.75 476.74 124.73 C 475.76 122.60 474.80 120.46 473.84 118.32 C 469.45 118.35 465.07 118.34 460.68 118.33 C 459.69 120.48 458.71 122.63 457.75 124.78 C 457.01 124.77 455.54 124.76 454.81 124.75 M 461.73 115.72 C 465.40 115.78 469.07 115.77 472.75 115.74 C 470.93 111.65 469.11 107.56 467.29 103.48 C 465.44 107.56 463.69 111.69 461.73 115.72 Z" />
<path fill="#fdfdfd" opacity="1.00" d=" M 16.26 112.07 C 20.14 108.73 25.49 109.51 29.99 110.95 C 34.56 112.49 39.54 112.84 43.84 115.15 C 38.98 118.24 33.16 116.11 27.91 115.64 C 23.95 114.91 19.31 115.08 16.26 112.07 Z" />
<path fill="#fdfdfd" opacity="1.00" d=" M 59.82 112.86 C 64.58 112.55 68.96 110.70 73.48 109.37 C 75.91 113.05 75.91 118.10 74.07 122.03 C 72.29 120.02 72.38 117.16 71.00 115.01 C 67.49 113.37 63.27 114.71 59.82 112.86 Z" />
<path fill="#fdfdfd" opacity="1.00" d=" M 80.61 131.95 C 78.59 125.04 75.45 117.32 78.80 110.30 C 82.91 110.43 81.71 115.33 82.27 118.04 C 82.15 122.64 85.23 127.49 82.68 131.87 C 82.56 133.17 80.74 133.09 80.61 131.95 Z" />
<path fill="#fdfdfd" opacity="1.00" d=" M 42.02 118.07 C 49.07 116.38 56.61 113.09 63.78 116.08 C 71.50 119.42 75.70 127.57 78.37 135.11 C 77.75 136.40 76.98 137.61 76.04 138.68 C 73.37 137.25 73.10 134.07 72.15 131.53 C 70.78 127.30 68.31 123.12 64.25 121.02 C 59.45 118.49 53.79 119.57 48.65 120.04 C 51.33 122.35 54.98 120.86 58.03 122.08 C 61.71 123.27 65.45 125.61 66.62 129.52 C 67.62 132.67 69.08 135.63 71.34 138.07 C 71.10 140.25 68.31 140.49 67.36 138.68 C 64.70 134.83 62.64 130.34 58.49 127.78 C 54.72 124.77 49.76 124.68 45.37 123.19 C 46.81 122.58 48.29 122.16 49.83 121.93 C 49.23 121.39 48.63 120.84 48.04 120.29 C 37.52 123.09 26.57 123.07 15.77 122.71 C 12.42 122.79 12.80 119.07 13.21 116.78 C 15.44 116.39 17.78 116.23 19.93 117.13 C 26.99 119.78 34.73 119.44 42.02 118.07 Z" />
<path fill="#fdfdfd" opacity="1.00" d=" M 16.39 124.77 C 24.51 124.24 33.00 125.62 40.16 129.62 C 47.22 133.64 51.02 141.48 52.28 149.24 C 52.64 150.84 51.04 151.73 49.66 151.71 C 48.47 147.83 48.13 143.62 45.92 140.12 C 41.27 132.47 32.05 127.37 23.03 128.84 C 19.98 129.38 17.77 127.19 16.39 124.77 Z" />
<path fill="#fdfdfd" opacity="1.00" d=" M 41.40 125.66 C 43.32 125.55 45.25 125.59 47.17 125.70 C 54.69 127.51 60.07 133.72 63.88 140.09 C 65.15 141.27 63.08 143.71 61.78 142.42 C 58.24 137.26 54.81 130.08 47.95 129.16 C 51.15 132.08 54.79 135.01 55.76 139.50 C 56.23 142.29 57.17 145.84 54.87 148.05 C 53.08 143.97 53.50 139.10 50.62 135.46 C 48.23 131.54 43.24 129.93 41.40 125.66 Z" />
<path fill="#fdfdfd" opacity="1.00" d=" M 21.25 133.17 C 22.28 129.31 27.20 129.63 30.07 131.01 C 34.79 133.26 38.91 136.69 42.44 140.53 C 45.23 144.11 46.69 148.67 47.34 153.11 C 45.89 155.53 42.65 153.42 42.54 151.15 C 41.41 146.41 40.34 140.97 35.98 138.07 C 31.64 134.87 25.77 135.93 21.25 133.17 Z" />
<path fill="#fdfdfd" opacity="1.00" d=" M 25.13 139.67 C 28.29 137.64 31.94 139.85 34.84 141.33 C 36.85 141.63 35.18 143.88 33.89 143.68 C 36.23 146.75 39.27 149.38 40.56 153.14 C 39.80 154.07 38.96 154.93 38.05 155.72 C 31.08 153.07 28.40 145.71 25.13 139.67 Z" />
</g>
</svg>
