<?xml version="1.0" encoding="UTF-8" ?>
<!DOCTYPE svg PUBLIC "-//W3C//DTD SVG 1.1//EN" "http://www.w3.org/Graphics/SVG/1.1/DTD/svg11.dtd">
<svg width="225pt" height="225pt" viewBox="0 0 225 225" version="1.1" xmlns="http://www.w3.org/2000/svg">
<g id="#fbfbfbfb">
<path fill="#fbfbfb" opacity="1.00" d=" M 184.43 0.00 L 195.56 0.00 C 202.18 1.75 208.40 4.98 213.69 9.32 C 219.53 14.58 222.97 21.99 225.00 29.47 L 225.00 40.57 C 221.70 51.99 214.68 63.82 202.88 67.81 C 192.42 71.80 179.94 70.83 170.73 64.28 C 167.23 61.68 164.01 58.74 160.82 55.77 C 130.33 70.89 99.95 86.26 69.41 101.27 C 69.60 108.76 69.87 116.26 69.49 123.75 C 99.98 138.70 130.22 154.16 160.70 169.13 C 166.87 164.04 172.70 157.42 180.99 156.02 C 193.21 152.76 207.58 156.28 215.75 166.25 C 219.87 171.68 223.26 177.80 225.00 184.43 L 225.00 195.56 C 223.25 202.18 220.01 208.40 215.68 213.69 C 210.42 219.53 203.01 222.97 195.53 225.00 L 184.43 225.00 C 175.59 222.57 167.24 217.72 161.29 210.70 C 155.20 202.46 155.49 191.69 154.57 181.94 C 127.54 167.97 100.09 154.84 73.08 140.83 C 69.74 139.35 66.53 137.26 62.90 136.58 C 59.18 137.24 56.52 140.55 53.25 142.24 C 47.43 146.46 40.09 147.77 33.04 147.85 C 16.77 146.72 2.88 133.53 0.00 117.63 L 0.00 107.37 C 2.88 91.47 16.77 78.28 33.04 77.15 C 40.09 77.23 47.43 78.54 53.25 82.76 C 56.52 84.44 59.18 87.76 62.90 88.42 C 66.53 87.74 69.74 85.64 73.08 84.17 C 100.09 70.16 127.54 57.03 154.57 43.06 C 155.49 33.31 155.20 22.54 161.29 14.30 C 167.24 7.28 175.59 2.42 184.43 0.00 M 186.44 14.47 C 176.27 15.48 168.07 25.86 169.05 35.97 C 168.53 46.88 179.06 57.06 189.97 55.96 C 202.48 56.60 213.45 43.74 210.52 31.44 C 208.82 20.58 197.37 12.11 186.44 14.47 M 33.41 91.52 C 24.93 92.22 16.77 98.45 15.08 107.03 C 11.23 118.69 20.31 132.46 32.60 133.42 C 44.69 135.34 57.38 124.52 55.96 112.03 C 56.72 100.12 44.95 90.19 33.41 91.52 M 184.43 169.48 C 175.53 171.57 168.04 180.58 169.04 189.97 C 168.40 202.48 181.26 213.45 193.56 210.52 C 205.33 208.72 213.98 195.49 210.00 184.00 C 207.54 173.19 194.97 166.57 184.43 169.48 Z" />
</g>
</svg>
